<?xml version="1.0" encoding="UTF-8"?>
<svg xmlns="http://www.w3.org/2000/svg" xmlns:xlink="http://www.w3.org/1999/xlink" width="450" height="187.5" viewBox="0 0 450 187.5">
<defs>
<g>
<g id="glyph-0-0">
<path d="M 22.484375 -51.484375 L 22.484375 -29.25 L 23.5625 -29.25 C 27.03125 -29.25 29.539062 -30.332031 31.09375 -32.5 C 32.65625 -34.675781 33.648438 -37.890625 34.078125 -42.140625 L 35.609375 -42.140625 L 35.609375 -13.53125 L 34.078125 -13.53125 C 33.753906 -16.644531 33.078125 -19.195312 32.046875 -21.1875 C 31.015625 -23.175781 29.8125 -24.507812 28.4375 -25.1875 C 27.070312 -25.875 25.085938 -26.21875 22.484375 -26.21875 L 22.484375 -10.84375 C 22.484375 -7.832031 22.609375 -5.988281 22.859375 -5.3125 C 23.117188 -4.644531 23.597656 -4.09375 24.296875 -3.65625 C 24.992188 -3.226562 26.117188 -3.015625 27.671875 -3.015625 L 30.9375 -3.015625 C 36.039062 -3.015625 40.128906 -4.195312 43.203125 -6.5625 C 46.273438 -8.925781 48.484375 -12.523438 49.828125 -17.359375 L 51.328125 -17.359375 L 48.859375 0 L 1.65625 0 L 1.65625 -1.484375 L 3.46875 -1.484375 C 5.050781 -1.484375 6.328125 -1.769531 7.296875 -2.34375 C 7.992188 -2.71875 8.53125 -3.359375 8.90625 -4.265625 C 9.195312 -4.910156 9.34375 -6.601562 9.34375 -9.34375 L 9.34375 -45.28125 C 9.34375 -47.75 9.273438 -49.265625 9.140625 -49.828125 C 8.867188 -50.765625 8.375 -51.488281 7.65625 -52 C 6.632812 -52.757812 5.238281 -53.140625 3.46875 -53.140625 L 1.65625 -53.140625 L 1.65625 -54.625 L 47.375 -54.625 L 47.375 -38.46875 L 45.84375 -38.46875 C 45.0625 -42.414062 43.960938 -45.25 42.546875 -46.96875 C 41.140625 -48.6875 39.148438 -49.945312 36.578125 -50.75 C 35.078125 -51.238281 32.257812 -51.484375 28.125 -51.484375 Z M 22.484375 -51.484375 "/>
</g>
<g id="glyph-0-1">
<path d="M 18.171875 -37.671875 L 18.171875 -32.796875 C 20.097656 -34.890625 21.945312 -36.410156 23.71875 -37.359375 C 25.5 -38.316406 27.410156 -38.796875 29.453125 -38.796875 C 31.890625 -38.796875 33.914062 -38.113281 35.53125 -36.75 C 37.144531 -35.394531 38.21875 -33.710938 38.75 -31.703125 C 39.175781 -30.171875 39.390625 -27.226562 39.390625 -22.875 L 39.390625 -8.21875 C 39.390625 -5.320312 39.648438 -3.515625 40.171875 -2.796875 C 40.703125 -2.085938 41.800781 -1.640625 43.46875 -1.453125 L 43.46875 0 L 24.40625 0 L 24.40625 -1.453125 C 25.832031 -1.640625 26.851562 -2.226562 27.46875 -3.21875 C 27.90625 -3.894531 28.125 -5.5625 28.125 -8.21875 L 28.125 -24.96875 C 28.125 -28.0625 28 -30.007812 27.75 -30.8125 C 27.507812 -31.625 27.097656 -32.25 26.515625 -32.6875 C 25.941406 -33.132812 25.304688 -33.359375 24.609375 -33.359375 C 22.304688 -33.359375 20.160156 -31.707031 18.171875 -28.40625 L 18.171875 -8.21875 C 18.171875 -5.394531 18.429688 -3.609375 18.953125 -2.859375 C 19.472656 -2.109375 20.445312 -1.640625 21.875 -1.453125 L 21.875 0 L 2.8125 0 L 2.8125 -1.453125 C 4.40625 -1.609375 5.535156 -2.117188 6.203125 -2.984375 C 6.660156 -3.578125 6.890625 -5.320312 6.890625 -8.21875 L 6.890625 -29.484375 C 6.890625 -32.328125 6.625 -34.097656 6.09375 -34.796875 C 5.570312 -35.503906 4.476562 -35.960938 2.8125 -36.171875 L 2.8125 -37.671875 Z M 18.171875 -37.671875 "/>
</g>
</g>
<linearGradient id="linear-pattern-0" gradientUnits="userSpaceOnUse" x1="210" y1="0" x2="520" y2="0">
<stop offset="0" stop-color="rgb(0%, 38.431373%, 63.921571%)" stop-opacity="1"/>
<stop offset="1" stop-color="rgb(97.254902%, 71.372551%, 10.196079%)" stop-opacity="1"/>
</linearGradient>
<linearGradient id="linear-pattern-1" gradientUnits="userSpaceOnUse" x1="210" y1="0" x2="520" y2="0" gradientTransform="matrix(0.4875, 0, 0, 0.4875, 180.037058, 69.727924)">
<stop offset="0" stop-color="rgb(0%, 38.431373%, 63.921571%)" stop-opacity="1"/>
<stop offset="1" stop-color="rgb(97.254902%, 71.372551%, 10.196079%)" stop-opacity="1"/>
</linearGradient>
<linearGradient id="linear-pattern-2" gradientUnits="userSpaceOnUse" x1="210" y1="0" x2="520" y2="0" gradientTransform="matrix(0.75, 0, 0, 0.75, 0, 0)">
<stop offset="0" stop-color="rgb(0%, 38.431373%, 63.921571%)" stop-opacity="1"/>
<stop offset="1" stop-color="rgb(97.254902%, 71.372551%, 10.196079%)" stop-opacity="1"/>
</linearGradient>
<linearGradient id="linear-pattern-3" gradientUnits="userSpaceOnUse" x1="210" y1="0" x2="520" y2="0" gradientTransform="matrix(0.75, 0, 0, 0.75, 0, 0)">
<stop offset="0" stop-color="rgb(0%, 38.431373%, 63.921571%)" stop-opacity="1"/>
<stop offset="1" stop-color="rgb(97.254902%, 71.372551%, 10.196079%)" stop-opacity="1"/>
</linearGradient>
<linearGradient id="linear-pattern-4" gradientUnits="userSpaceOnUse" x1="210" y1="0" x2="520" y2="0" gradientTransform="matrix(0.75, 0, 0, 0.75, 0, 0)">
<stop offset="0" stop-color="rgb(0%, 38.431373%, 63.921571%)" stop-opacity="1"/>
<stop offset="1" stop-color="rgb(97.254902%, 71.372551%, 10.196079%)" stop-opacity="1"/>
</linearGradient>
<linearGradient id="linear-pattern-5" gradientUnits="userSpaceOnUse" x1="210" y1="0" x2="520" y2="0" gradientTransform="matrix(0.75, 0, 0, 0.75, 0, 0)">
<stop offset="0" stop-color="rgb(0%, 38.431373%, 63.921571%)" stop-opacity="1"/>
<stop offset="1" stop-color="rgb(97.254902%, 71.372551%, 10.196079%)" stop-opacity="1"/>
</linearGradient>
</defs>
<g fill="rgb(0%, 38.431373%, 63.921571%)" fill-opacity="1">
<use xlink:href="#glyph-0-0" x="54.022076" y="128.82177"/>
</g>
<g fill="rgb(0%, 38.431373%, 63.921571%)" fill-opacity="1">
<use xlink:href="#glyph-0-1" x="109.048931" y="128.82177"/>
</g>
<path fill="none" stroke-width="10" stroke-linecap="butt" stroke-linejoin="miter" stroke="url(#linear-pattern-0)" stroke-miterlimit="4" d="M 21.999305 -0.00279231 C 21.999305 12.152656 12.151549 22.000413 -0.0039 22.000413 C -12.151336 22.000413 -21.999092 12.152656 -21.999092 -0.00279231 C -21.999092 -12.150228 -12.151336 -21.997985 -0.0039 -21.997985 C 12.151549 -21.997985 21.999305 -12.150228 21.999305 -0.00279231 Z M 21.999305 -0.00279231 " transform="matrix(0.4875, 0, 0, 0.4875, 180.037058, 69.727924)"/>
<path fill-rule="nonzero" fill="url(#linear-pattern-1)" d="M 177.113281 54.128906 L 182.960938 54.128906 L 184.910156 59.976562 L 189.785156 64.851562 L 195.636719 66.804688 L 195.636719 72.652344 L 189.785156 74.601562 L 184.910156 79.476562 L 182.960938 85.328125 L 177.113281 85.328125 L 175.160156 79.476562 L 170.285156 74.601562 L 164.4375 72.652344 L 164.4375 66.804688 L 170.285156 64.851562 L 175.160156 59.976562 Z M 177.113281 54.128906 "/>
<path fill-rule="nonzero" fill="rgb(100%, 100%, 100%)" fill-opacity="1" d="M 184.910156 69.726562 C 184.910156 72.421875 182.730469 74.601562 180.035156 74.601562 C 177.34375 74.601562 175.160156 72.421875 175.160156 69.726562 C 175.160156 67.035156 177.34375 64.851562 180.035156 64.851562 C 182.730469 64.851562 184.910156 67.035156 184.910156 69.726562 Z M 184.910156 69.726562 "/>
<path fill-rule="nonzero" fill="url(#linear-pattern-2)" d="M 189.34375 83.515625 L 204.34375 83.515625 L 204.34375 88.75 L 195.828125 88.75 C 197.378906 90.304688 198.457031 91.714844 199.0625 92.984375 C 199.820312 94.703125 200.203125 96.496094 200.203125 98.359375 C 200.203125 101.539062 199.320312 104.292969 197.5625 106.625 C 195.800781 108.960938 193.40625 110.789062 190.375 112.109375 C 187.34375 113.421875 184.648438 114.078125 182.296875 114.078125 C 182.109375 114.078125 180.207031 114 176.59375 113.84375 C 175.164062 113.84375 173.96875 114.3125 173 115.25 C 172.03125 116.179688 171.546875 117.292969 171.546875 118.59375 C 171.546875 119.742188 171.976562 120.679688 172.84375 121.40625 C 173.71875 122.136719 175.140625 122.5 177.109375 122.5 L 185.34375 122.40625 C 192.007812 122.40625 196.597656 123.136719 199.109375 124.59375 C 202.691406 126.625 204.484375 129.75 204.484375 133.96875 C 204.484375 136.664062 203.65625 139.117188 202 141.328125 C 200.351562 143.535156 198.179688 145.160156 195.484375 146.203125 C 191.390625 147.765625 186.675781 148.546875 181.34375 148.546875 C 177.351562 148.546875 173.707031 148.15625 170.40625 147.375 C 167.101562 146.59375 164.738281 145.507812 163.3125 144.125 C 161.882812 142.75 161.171875 141.300781 161.171875 139.78125 C 161.171875 138.320312 161.71875 137.015625 162.8125 135.859375 C 163.90625 134.703125 165.941406 133.722656 168.921875 132.921875 C 164.796875 130.890625 162.734375 128.066406 162.734375 124.453125 C 162.734375 122.265625 163.570312 120.140625 165.25 118.078125 C 166.9375 116.015625 169.609375 114.21875 173.265625 112.6875 C 169.003906 111.136719 165.921875 109.09375 164.015625 106.5625 C 162.117188 104.023438 161.171875 101.085938 161.171875 97.75 C 161.171875 93.398438 162.945312 89.625 166.5 86.4375 C 170.050781 83.25 174.617188 81.65625 180.203125 81.65625 C 183.160156 81.65625 186.207031 82.277344 189.34375 83.515625 Z M 181.109375 84.609375 C 179.273438 84.609375 177.722656 85.539062 176.453125 87.390625 C 175.179688 89.246094 174.546875 93.09375 174.546875 98.9375 C 174.546875 103.667969 175.171875 106.914062 176.421875 108.671875 C 177.671875 110.433594 179.15625 111.3125 180.875 111.3125 C 182.78125 111.3125 184.367188 110.445312 185.640625 108.703125 C 186.910156 106.953125 187.546875 103.554688 187.546875 98.5 C 187.546875 92.824219 186.828125 88.953125 185.390625 86.890625 C 184.378906 85.371094 182.953125 84.609375 181.109375 84.609375 Z M 178.296875 134.0625 C 175.066406 134.0625 172.925781 134.332031 171.875 134.875 C 170.0625 135.863281 169.15625 137.195312 169.15625 138.875 C 169.15625 140.5 170.09375 141.96875 171.96875 143.28125 C 173.84375 144.59375 177.367188 145.25 182.546875 145.25 C 186.953125 145.25 190.414062 144.660156 192.9375 143.484375 C 195.46875 142.316406 196.734375 140.671875 196.734375 138.546875 C 196.734375 137.753906 196.492188 137.085938 196.015625 136.546875 C 195.160156 135.597656 193.867188 134.945312 192.140625 134.59375 C 190.410156 134.238281 185.796875 134.0625 178.296875 134.0625 Z M 178.296875 134.0625 "/>
<path fill-rule="nonzero" fill="url(#linear-pattern-3)" d="M 247.984375 115.703125 L 247.984375 106.265625 C 246.023438 106.433594 243.90625 106.65625 241.625 106.9375 C 239.34375 107.21875 237.609375 107.546875 236.421875 107.921875 C 234.972656 108.382812 233.863281 109.046875 233.09375 109.921875 C 232.332031 110.789062 231.953125 111.933594 231.953125 113.359375 C 231.953125 114.296875 232.03125 115.0625 232.1875 115.65625 C 232.351562 116.25 232.757812 116.8125 233.40625 117.34375 C 234.019531 117.886719 234.753906 118.289062 235.609375 118.546875 C 236.472656 118.796875 237.820312 118.921875 239.65625 118.921875 C 241.101562 118.921875 242.570312 118.625 244.0625 118.03125 C 245.550781 117.4375 246.859375 116.664062 247.984375 115.703125 Z M 247.984375 122.703125 C 247.210938 123.296875 246.25 124.011719 245.09375 124.84375 C 243.9375 125.679688 242.847656 126.335938 241.828125 126.8125 C 240.398438 127.460938 238.921875 127.929688 237.390625 128.234375 C 235.859375 128.546875 234.179688 128.703125 232.359375 128.703125 C 228.066406 128.703125 224.46875 127.375 221.5625 124.71875 C 218.664062 122.0625 217.21875 118.667969 217.21875 114.53125 C 217.21875 111.230469 217.953125 108.53125 219.421875 106.4375 C 220.898438 104.34375 223 102.695312 225.71875 101.484375 C 228.40625 100.277344 231.734375 99.417969 235.703125 98.90625 C 239.679688 98.398438 243.804688 98.015625 248.078125 97.765625 L 248.078125 97.53125 C 248.078125 95.03125 247.054688 93.308594 245.015625 92.359375 C 242.972656 91.402344 239.960938 90.921875 235.984375 90.921875 C 233.597656 90.921875 231.046875 91.34375 228.328125 92.1875 C 225.617188 93.03125 223.671875 93.683594 222.484375 94.140625 L 221.15625 94.140625 L 221.15625 83.234375 C 222.6875 82.828125 225.175781 82.351562 228.625 81.796875 C 232.082031 81.246094 235.539062 80.96875 239 80.96875 C 247.25 80.96875 253.207031 82.242188 256.875 84.78125 C 260.539062 87.324219 262.375 91.304688 262.375 96.71875 L 262.375 127.5 L 247.984375 127.5 Z M 247.984375 122.703125 "/>
<path fill-rule="nonzero" fill="url(#linear-pattern-4)" d="M 320.84375 122.296875 C 320.84375 126.546875 320.238281 130.117188 319.03125 133.015625 C 317.820312 135.921875 316.128906 138.191406 313.953125 139.828125 C 311.773438 141.492188 309.148438 142.695312 306.078125 143.4375 C 303.003906 144.175781 299.53125 144.546875 295.65625 144.546875 C 292.519531 144.546875 289.425781 144.351562 286.375 143.96875 C 283.320312 143.59375 280.679688 143.140625 278.453125 142.609375 L 278.453125 131.28125 L 280.234375 131.28125 C 282.003906 131.976562 284.164062 132.613281 286.71875 133.1875 C 289.269531 133.769531 291.550781 134.0625 293.5625 134.0625 C 296.25 134.0625 298.429688 133.8125 300.109375 133.3125 C 301.785156 132.820312 303.066406 132.117188 303.953125 131.203125 C 304.785156 130.347656 305.390625 129.25 305.765625 127.90625 C 306.140625 126.566406 306.328125 124.949219 306.328125 123.0625 L 306.328125 122.21875 C 304.585938 123.648438 302.65625 124.777344 300.53125 125.609375 C 298.414062 126.445312 296.050781 126.859375 293.4375 126.859375 C 287.101562 126.859375 282.21875 124.953125 278.78125 121.140625 C 275.34375 117.328125 273.625 111.527344 273.625 103.734375 C 273.625 100.007812 274.144531 96.789062 275.1875 94.078125 C 276.238281 91.359375 277.71875 88.992188 279.625 86.96875 C 281.394531 85.09375 283.578125 83.636719 286.171875 82.59375 C 288.765625 81.542969 291.414062 81.015625 294.125 81.015625 C 296.570312 81.015625 298.796875 81.308594 300.796875 81.890625 C 302.796875 82.464844 304.613281 83.261719 306.25 84.28125 L 306.78125 82.265625 L 320.84375 82.265625 Z M 306.328125 113.234375 L 306.328125 92.734375 C 305.503906 92.390625 304.488281 92.121094 303.28125 91.921875 C 302.070312 91.714844 300.984375 91.609375 300.015625 91.609375 C 296.203125 91.609375 293.34375 92.703125 291.4375 94.890625 C 289.53125 97.078125 288.578125 100.136719 288.578125 104.0625 C 288.578125 108.40625 289.382812 111.4375 291 113.15625 C 292.625 114.875 295.035156 115.734375 298.234375 115.734375 C 299.679688 115.734375 301.101562 115.511719 302.5 115.0625 C 303.90625 114.605469 305.179688 113.996094 306.328125 113.234375 Z M 306.328125 113.234375 "/>
<path fill-rule="nonzero" fill="url(#linear-pattern-5)" d="M 381.40625 107.5625 L 348.203125 107.5625 C 348.421875 111.105469 349.769531 113.820312 352.25 115.703125 C 354.738281 117.578125 358.398438 118.515625 363.234375 118.515625 C 366.296875 118.515625 369.265625 117.96875 372.140625 116.875 C 375.015625 115.773438 377.28125 114.585938 378.9375 113.3125 L 380.5625 113.3125 L 380.5625 124.96875 C 377.28125 126.28125 374.1875 127.230469 371.28125 127.8125 C 368.382812 128.40625 365.175781 128.703125 361.65625 128.703125 C 352.582031 128.703125 345.628906 126.667969 340.796875 122.59375 C 335.960938 118.511719 333.546875 112.695312 333.546875 105.140625 C 333.546875 97.671875 335.832031 91.761719 340.40625 87.40625 C 344.988281 83.042969 351.269531 80.859375 359.25 80.859375 C 366.601562 80.859375 372.132812 82.71875 375.84375 86.4375 C 379.550781 90.15625 381.40625 95.507812 381.40625 102.484375 Z M 366.984375 99.0625 C 366.898438 96.03125 366.144531 93.75 364.71875 92.21875 C 363.300781 90.6875 361.085938 89.921875 358.078125 89.921875 C 355.285156 89.921875 352.988281 90.648438 351.1875 92.09375 C 349.382812 93.542969 348.378906 95.867188 348.171875 99.0625 Z M 366.984375 99.0625 "/>
</svg>
